# xmcd
#
# Track frame offsets: 
#        151
#        14246
#        30367
#        40333
#        55728
#        65284
#        79623
#        94209
#        104650
#        117167
#        128586
#        138777
#        150569
#        162579
#        179320
#
# Disc length: 2549 seconds
#
# Revision: 0
# Processed by: cddbd v1.5PL3 Copyright (c) Steve Scherf et al.
# Submitted via: ExactAudioCopy v0.95a5
#
DISCID=c009f30f
DTITLE=Al Batton And THe Bluegrass Reunion Band - New Black Suit
DYEAR=1900
DGENRE=Bluegrass
TTITLE0=California Cotton Fields
TTITLE1=New Black Suit
TTITLE2=Neath The Tree
TTITLE3=Building on Sand
TTITLE4=Are You Teasing Me
TTITLE5=My Baby's Gone
TTITLE6=Beneath The Winter Snow
TTITLE7=Don't Laugh 
TTITLE8=Strand From A Yellow Curl
TTITLE9=Sing A Bluegrass Song
TTITLE10=I'll Never Change My Mind
TTITLE11=When The Savior Reached Down
TTITLE12=Sundown And Sorrow
TTITLE13=Muleskinner Blues
TTITLE14=Rockin On The Waves
EXTD=
EXTT0=
EXTT1=
EXTT2=
EXTT3=
EXTT4=
EXTT5=
EXTT6=
EXTT7=
EXTT8=
EXTT9=
EXTT10=
EXTT11=
EXTT12=
EXTT13=
EXTT14=
PLAYORDER=
